 http://www.shotpix.com/images/44815244740947928279.jpg

 
http://www.imdb.com/title/tt1690540/


A college student gets involved in the wild partying lifestyle of the professional freestyle motocross world.
 


Director: 
Nick Parada

 Writers: 
Kim MacKenzie (screenplay), Nick Parada (screenplay)
 
Stars:
 D.J. Bennett, Jakob Bokulich and Mario Castillo

Genres:
 Action | Crime | Drama 


Country:
USA 

Language:
English 

Format                                   : AVI
Format/Info                              : Audio Video Interleave
File size                                : 1.36 GiB
Duration                                 : 1h 29mn
Overall bit rate                         : 2 185 Kbps

Video
ID                                       : 0
Format                                   : MPEG-4 Visual
Format profile                           : Simple@L3
Format settings, BVOP                    : No
Format settings, QPel                    : No
Format settings, GMC                     : No warppoints
Format settings, Matrix                  : Default (H.263)
Codec ID                                 : XVID
Codec ID/Hint                            : XviD
Duration                                 : 1h 29mn
Source duration                          : 1h 29mn
Bit rate                                 : 1 726 Kbps
Width                                    : 720 pixels
Height                                   : 400 pixels
Display aspect ratio                     : 16:9
Frame rate                               : 23.976 fps
Color space                              : YUV
Chroma subsampling                       : 4:2:0
Bit depth                                : 8 bits
Scan type                                : Progressive
Compression mode                         : Lossy
Bits/(Pixel*Frame)                       : 0.250
Stream size                              : 1.08 GiB (79%)
Writing library                          : XviD 1.1.2 (UTC 2006-11-01)

Audio
ID                                       : 1
Format                                   : AC-3
Format/Info                              : Audio Coding 3
Mode extension                           : CM (complete main)
Format settings, Endianness              : Big
Codec ID                                 : 2000
Duration                                 : 1h 29mn
Bit rate mode                            : Constant
Bit rate                                 : 448 Kbps
Channel(s)                               : 6 channels
Channel positions                        : Front: L C R, Side: L R, LFE
Sampling rate                            : 48.0 KHz
Bit depth                                : 16 bits
Compression mode                         : Lossy
Stream size                              : 286 MiB (21%)
Alignment                                : Aligned on interleaves
Interleave, duration                     : 32 ms (0.77 video frame)
Interleave, preload duration             : 160 ms

 
http://www.shotpix.com/images/56952015298867342051.jpg 
http://www.shotpix.com/images/67036263680077503338.jpg 
http://www.shotpix.com/images/66320297028221251461.jpg 
http://www.shotpix.com/images/65713815747383230743.jpg